# xmcd
#
# Track frame offsets:
# 150
# 16957
# 32427
# 41850
# 53975
# 70302
# 84320
# 100035
# 111157
# 125525
# 136817
# 151477
#
# Disc length: 2254 seconds
#
#
# Revision: 0
# Processed by: cddbd v1.5.2PL0 Copyright (c) Steve Scherf et al.
# Submitted via: FreeRIP 2.95 
#
DISCID=9808cc0c
DTITLE=Fosforito - Arte Flamenco
DYEAR=1900
DGENRE=Flamenco
TTITLE0=Seguirillas
TTITLE1=Soleares
TTITLE2=Bulerias De Cadiz
TTITLE3=Malagueña
TTITLE4=Peteneras De Medina
TTITLE5=Romeras
TTITLE6=Alegrias
TTITLE7=Soleá De Cádiz
TTITLE8=Con El Vapor De Mi Aliento Tarantos)
TTITLE9=Bulerias Por Soleá
TTITLE10=Alegrias
TTITLE11=Como Reluce (Caracoles)
EXTD=Con La Guitarra De Paco De Lucia
EXTT0=
EXTT1=
EXTT2=
EXTT3=
EXTT4=
EXTT5=
EXTT6=
EXTT7=
EXTT8=
EXTT9=
EXTT10=
EXTT11=
PLAYORDER=
